<svg xmlns="http://www.w3.org/2000/svg" width="91.402" height="93.761" viewBox="0 0 91.402 93.761">
  <g id="stay-home" transform="translate(-3.194 0.603)">
    <g id="그룹_3130" data-name="그룹 3130" transform="translate(3.694 0)">
      <g id="그룹_3124" data-name="그룹 3124" transform="translate(22.408 41.074)">
        <g id="그룹_3121" data-name="그룹 3121">
          <path id="패스_14140" data-name="패스 14140" d="M81.731,156.592a1.441,1.441,0,0,1-1.041-.441A12.75,12.75,0,1,1,101.153,141.4a1.45,1.45,0,1,1-2.576,1.333,9.848,9.848,0,1,0-15.808,11.385,1.449,1.449,0,0,1-.028,2.05,1.413,1.413,0,0,1-1.01.42Z" transform="translate(-77.076 -134.508)" stroke="#000" stroke-width="1"/>
        </g>
        <g id="그룹_3122" data-name="그룹 3122" transform="translate(21.331 0.007)">
          <path id="패스_14141" data-name="패스 14141" d="M166.52,156.608a1.452,1.452,0,0,1-1.041-2.462,9.848,9.848,0,1,0-15.808-11.388,1.45,1.45,0,0,1-2.576-1.333,12.75,12.75,0,1,1,20.464,14.746A1.449,1.449,0,0,1,166.52,156.608Z" transform="translate(-146.931 -134.531)" stroke="#000" stroke-width="1"/>
        </g>
        <g id="그룹_3123" data-name="그룹 3123" transform="translate(3.203 19.178)">
          <path id="패스_14142" data-name="패스 14142" d="M107.149,216.173a1.45,1.45,0,0,1-.959-.362L88.057,199.852a1.45,1.45,0,0,1,1.915-2.178l17.177,15.116,17.173-15.112a1.45,1.45,0,1,1,1.915,2.178L108.1,215.814A1.45,1.45,0,0,1,107.149,216.173Z" transform="translate(-87.564 -197.313)" stroke="#000" stroke-width="1"/>
        </g>
      </g>
      <g id="그룹_3125" data-name="그룹 3125" transform="translate(10.49 76.211)">
        <path id="패스_14143" data-name="패스 14143" d="M42.112,266.02a18.506,18.506,0,0,1-2.857-.185,1.451,1.451,0,0,1,.483-2.861c.146.025,14.729,2.207,32.055-13.041a1.45,1.45,0,0,1,1.915,2.178C59.7,264.439,47.471,266.02,42.112,266.02Z" transform="translate(-38.048 -249.573)" stroke="#000" stroke-width="1"/>
      </g>
      <g id="그룹_3126" data-name="그룹 3126" transform="translate(43.747 76.211)">
        <path id="패스_14144" data-name="패스 14144" d="M179.048,266.019c-5.355,0-17.593-1.581-31.6-13.908a1.45,1.45,0,0,1,1.915-2.178c17.411,15.322,31.905,13.066,32.051,13.041a1.451,1.451,0,1,1,.487,2.861,17.806,17.806,0,0,1-2.853.185Z" transform="translate(-146.956 -249.572)" stroke="#000" stroke-width="1"/>
      </g>
      <g id="그룹_3127" data-name="그룹 3127">
        <path id="패스_14145" data-name="패스 14145" d="M86.807,50.771a1.443,1.443,0,0,1-1-.4L48.9,15.145,11.984,50.37a1.521,1.521,0,0,1-1.034.4,1.467,1.467,0,0,1-1.016-.448L4.1,44.2a1.449,1.449,0,0,1,.046-2.05L47.894.4a1.449,1.449,0,0,1,2,0L93.647,42.154a1.449,1.449,0,0,1,.046,2.05l-5.838,6.119a1.451,1.451,0,0,1-1.016.448ZM48.893,11.692a1.456,1.456,0,0,1,1,.4L86.757,47.271l3.834-4.019L48.893,3.458,7.2,43.252l3.834,4.019L47.894,12.093a1.425,1.425,0,0,1,1-.4Z" transform="translate(-3.694 0)" stroke="#000" stroke-width="1"/>
      </g>
      <g id="그룹_3128" data-name="그룹 3128" transform="translate(10.497 43.426)">
        <path id="패스_14146" data-name="패스 14146" d="M39.519,191.279a1.449,1.449,0,0,1-1.45-1.45V143.661a1.45,1.45,0,1,1,2.9,0v46.168A1.444,1.444,0,0,1,39.519,191.279Z" transform="translate(-38.069 -142.211)" stroke="#000" stroke-width="1"/>
      </g>
      <g id="그룹_3129" data-name="그룹 3129" transform="translate(77.005 43.426)">
        <path id="패스_14147" data-name="패스 14147" d="M257.317,191.279a1.449,1.449,0,0,1-1.45-1.45V143.661a1.45,1.45,0,1,1,2.9,0v46.168A1.449,1.449,0,0,1,257.317,191.279Z" transform="translate(-255.867 -142.211)" stroke="#000" stroke-width="1"/>
      </g>
    </g>
  </g>
</svg>
