<svg xmlns="http://www.w3.org/2000/svg" width="114.105" height="90.591" viewBox="0 0 114.105 90.591">
  <g id="handshake" transform="translate(-79.353 -143.924)">
    <path id="패스_15833" data-name="패스 15833" d="M112.362,125.018l-18.884-24.53a2.212,2.212,0,0,0-2.94-.516l-12.192,7.754h-15.9a2.193,2.193,0,0,0-.609.1l-12.329,3.549-12.793-3.5-12.43-7.905a2.211,2.211,0,0,0-2.909.477L.49,126.319a2.212,2.212,0,0,0,.279,3.066l10.947,9.421,9.821,13.235a7.811,7.811,0,0,0,4.914,13.122,7.868,7.868,0,0,0-.091,1.2,7.819,7.819,0,0,0,7.818,7.818l.083,0c0,.053,0,.106,0,.159a7.817,7.817,0,0,0,7.818,7.818,7.978,7.978,0,0,0,1.221-.1,7.818,7.818,0,0,0,13.3,4.76l1.2-1.2.5.4a7.815,7.815,0,0,0,13.25-5.741,7.8,7.8,0,0,0,7.936-7.932,7.812,7.812,0,0,0,7.935-7.94A7.814,7.814,0,0,0,94.1,152.34l7.171-15.019,10.781-9.277A2.212,2.212,0,0,0,112.362,125.018ZM23.578,104.765l8.938,5.684L13.072,134.137,5.28,127.431Zm1.261,50.224,2.7-2.7c.082-.082.168-.159.256-.232a3.386,3.386,0,0,1,1.843-.748l.058,0c.1-.008.193-.013.29-.012a3.374,3.374,0,0,1,2.42,1.063,3.478,3.478,0,0,1-.15,4.813l-2.616,2.616a3.394,3.394,0,0,1-4.8-4.8Zm6.94,13.769a3.392,3.392,0,0,1,0-4.8l5.231-5.231a3.43,3.43,0,0,1,3.858-.666,3.382,3.382,0,0,1,1.87,3.5,3.581,3.581,0,0,1-1.011,2.044l-5.148,5.147a3.394,3.394,0,0,1-4.8,0Zm7.9,7.975a3.392,3.392,0,0,1,0-4.8l5.23-5.231a3.432,3.432,0,0,1,4.1-.538,3.377,3.377,0,0,1,1.62,3.429,3.585,3.585,0,0,1-1.005,1.991l-5.147,5.147a3.393,3.393,0,0,1-4.8,0Zm9,6.955a3.4,3.4,0,0,1,0-4.8l2.7-2.7c.082-.082.167-.158.255-.231l.006-.005a3.382,3.382,0,0,1,1.5-.7l.039-.005c.095-.017.191-.031.287-.04.039,0,.077,0,.117-.006.079,0,.158-.009.238-.009a3.372,3.372,0,0,1,2.42,1.063,3.063,3.063,0,0,1,.219.257,3.5,3.5,0,0,1-.382,4.569l-2.6,2.6A3.4,3.4,0,0,1,48.674,183.688ZM89.944,159a3.4,3.4,0,0,1-4.8,0,2.01,2.01,0,0,0-.151-.135L70.769,144.488a2.212,2.212,0,0,0-3.145,3.113L82,162.13l.005.005a3.394,3.394,0,1,1-4.8,4.8l-9.619-9.719a2.212,2.212,0,1,0-3.144,3.113l9.472,9.57a2.1,2.1,0,0,0,.155.173,3.394,3.394,0,1,1-4.8,4.8l-5.25-5.3a2.212,2.212,0,1,0-3.145,3.112l5.1,5.156a1.969,1.969,0,0,0,.156.174,3.394,3.394,0,1,1-4.8,4.8,4.9,4.9,0,0,0-.5-.4c-.145-.11-.182-.187-.11-.362s.182-.339.256-.518c.081-.2.146-.405.21-.612a7.976,7.976,0,0,0,.287-3.4,7.739,7.739,0,0,0-6.6-6.66,7.891,7.891,0,0,0-1.895-7.119,7.76,7.76,0,0,0-5.573-2.445h-.233a7.742,7.742,0,0,0-7.664-7.975,7.957,7.957,0,0,0-1.888.2A7.79,7.79,0,0,0,24.7,148.882l-8.552-11.523L36.61,112.434l6.52,1.784-8.516,15.026A7.819,7.819,0,0,0,37.563,139.9q.17.1.344.184l.027.013a7.867,7.867,0,0,0,.938.393,7.818,7.818,0,0,0,9.347-3.538l5.534-9.765,9.881.7L89.945,154.2A3.4,3.4,0,0,1,89.944,159Zm.917-10.141L66.178,124.176a1.958,1.958,0,0,0-.146-.134,2.214,2.214,0,0,0-1.261-.508l-12.1-.858a2.249,2.249,0,0,0-2.081,1.116l-6.222,10.98a3.394,3.394,0,1,1-5.9-3.347l8.306-14.658,3.366-.968.066-.022,12.561-3.627H77.94l18.947,24.086Zm8.925-16.095L82.264,110.477l8.943-5.687,16.373,21.267Zm0,0" transform="translate(80 44.912)" stroke="#fff" stroke-width="1"/>
  </g>
</svg>
