<svg xmlns="http://www.w3.org/2000/svg" width="90.095" height="90.095" viewBox="0 0 90.095 90.095">
  <g id="smile" transform="translate(-3 -3)">
    <circle id="타원_1" data-name="타원 1" cx="4.29" cy="4.29" r="4.29" transform="translate(30.35 30.886)"/>
    <circle id="타원_2" data-name="타원 2" cx="4.29" cy="4.29" r="4.29" transform="translate(57.164 30.886)"/>
    <path id="패스_14148" data-name="패스 14148" d="M55.389,27.111a2.145,2.145,0,0,0-2.724,1.351A17.89,17.89,0,0,1,35.4,39.874,17.89,17.89,0,0,1,18.236,28.462a2.15,2.15,0,1,0-4.076,1.373A22.524,22.524,0,0,0,35.4,44.164,22.524,22.524,0,0,0,56.848,29.835a2.145,2.145,0,0,0-1.459-2.724Z" transform="translate(12.65 27.479)"/>
    <path id="패스_14149" data-name="패스 14149" d="M48.047,3A45.047,45.047,0,1,0,93.095,48.047,45.047,45.047,0,0,0,48.047,3Zm0,85.8A40.757,40.757,0,1,1,88.8,48.047,40.757,40.757,0,0,1,48.047,88.8Z" transform="translate(0 0)"/>
  </g>
</svg>
