<svg xmlns="http://www.w3.org/2000/svg" xmlns:xlink="http://www.w3.org/1999/xlink" width="1260" height="205.003" viewBox="0 0 1260 205.003">
  <defs>
    <clipPath id="clip-path">
      <rect id="사각형_364" data-name="사각형 364" width="1260" height="205.003"/>
    </clipPath>
  </defs>
  <g id="chefone" transform="translate(0 0)" opacity="0.079">
    <g id="그룹_2633" data-name="그룹 2633" transform="translate(0 0)" clip-path="url(#clip-path)">
      <path id="패스_14095" data-name="패스 14095" d="M126.268,102.251C126.263,45.438,172.109.044,229.5.039,286.441.034,332.64,45.859,332.8,102.5c.158,56-47.015,102.6-103.6,102.328-57.318-.274-102.928-45.725-102.933-102.58m103.544,62.862c33.479-.237,59.688-33.369,55.549-70.207-3.017-26.845-22.207-49.769-45.467-54.312-23.544-4.6-46.278,6.607-58.808,28.994-23.328,41.692,4.291,95.841,48.726,95.525" transform="translate(538.514 0.169)"/>
      <path id="패스_14096" data-name="패스 14096" d="M169.05,191.562c-.238-10.472-.316-72.565,0-107.508.384-42.3,21.57-69.564,61.925-79.715a136.375,136.375,0,0,1,72.092,1.048c35.985,10.366,56.839,35.948,57.724,73.382.89,37.581.09,75.2.337,112.794.053,7.7-2.159,10.73-10.5,10.988-36.406,1.116-36.4,1.39-36.4-35.411,0-28.309.121-56.623-.037-84.933-.147-25.877-12.2-39.318-37.833-41.929a109.344,109.344,0,0,0-22.465-.011c-25.608,2.748-37.865,16.247-38.028,41.956-.226,35.833-.374,71.665.142,107.492.142,9.835-2.689,12.838-12.736,12.809s-23.649,0-23.649,0S169.288,202.034,169.05,191.562Z" transform="translate(720.267 0.003)"/>
      <path id="패스_14097" data-name="패스 14097" d="M366.1.837V38.8c-13.794,0-27.34-.153-40.882.047-12.815.184-25.761-.311-38.391,1.385-20.286,2.722-31.321,18.337-28.472,40.276,23.018,0,46.331-.316,69.633.079,30.989.516,26.33-5.949,26.74,27.556.037,3.022-.521,6.049-.953,10.661H259.084c-4.559,21.1,7.208,38.249,28.493,40.139,20.638,1.832,41.513.953,62.289,1.232,5.2.074,10.409.011,16.21.011v40.06c-32.674-1.369-65.21.369-96.563-4.923-31.173-5.27-51.848-28.251-56.976-59.424a230.21,230.21,0,0,1-.369-71.007C218.061,26.335,251.04,1.169,290.2.874c25.1-.19,50.216-.037,75.9-.037" transform="translate(893.897 3.325)"/>
      <path id="패스_14098" data-name="패스 14098" d="M186.515,198.151H145.27c-.363-4.586-1.011-9.208-1.042-13.841-.126-20.786.332-41.587-.211-62.362-.574-21.86-10.361-31.284-32.042-31.815-11.388-.279-22.792-.053-35.88-.053V197.924H34.54V.935c11.6,0,23.334-.511,34.943.426,2.353.19,5.923,5.765,6.091,9,.684,13.578.284,27.209.284,41.5,19.88,1.069,38.376,1.158,56.65,3.238,37.612,4.275,53.975,23.128,54,60.414.021,27.288.005,54.575.005,82.637" transform="translate(147.308 3.396)"/>
      <path id="패스_14099" data-name="패스 14099" d="M106.431,100.648c8.608,18.427,23.207,22.555,39,23.007,23.808.679,47.647,2.279,72.481,2.279v31.674c-33.005-1.8-65.937-.648-97.731-6.112C85,145.452,66.612,118.1,66.807,82.442,67,47.157,85.971,20.469,121.356,14.252c24.834-4.365,51.1-4.033,76.33-1.685,24.539,2.29,36.054,21.791,33.6,48.537-2.2,23.992-17.69,39.065-41.671,39.45-26.961.426-53.938.095-83.179.095m-1.042-32.195c27.572,0,53.533-.168,79.494.1,8.229.084,9.645-4.4,8.987-10.946-.605-6,2.89-15.084-7.587-15.057-18.875.042-37.86.332-56.571,2.48-11.709,1.343-20.923,8.5-24.324,23.423" transform="translate(284.916 46.344)"/>
      <path id="패스_14100" data-name="패스 14100" d="M157.178,1.334V36.44c-4.128.363-7.9.958-11.683.979-19.459.1-38.928-.163-58.387.105-23.181.316-41.656,17.1-43.209,40.129a345.447,345.447,0,0,0-.032,43.74c1.369,23.139,19.417,40.034,42.74,40.5,20.338.4,40.7.321,61.041.011,7.366-.116,9.856,2.459,10.161,9.93,1.121,27.235,1.39,27.4-25.95,27.172-21.2-.179-42.656,1.058-63.536-1.743C28.942,191.98,1.344,159.169.3,119.383c-.363-13.7-.453-27.43.079-41.119C1.939,38.136,32.922,4.325,72.819,1.687c27.619-1.827,55.455-.353,84.359-.353" transform="translate(-0.001 3.296)"/>
      <path id="패스_14101" data-name="패스 14101" d="M169.438,99.593V203.32h-42.9V101.852c-9.345-1.959-22.5-1.679-23.923-5.628-3.343-9.266-1.069-20.554-1.069-32.168l23.492-1.1c.421-3.317.858-6.244,1.158-9.182,2.627-25.9,17.6-44.177,43.1-48.505,19.39-3.291,39.318-3.427,60.088-5.049V37.21c-12.409,0-24.645-.532-36.817.126-16.711.906-22.623,7.6-22.818,25.84h48.552c0,10.846.774,20.1-.453,29.078-.384,2.822-6,6.765-9.44,7.007-12.283.853-24.661.332-38.976.332" transform="translate(429.865 0.937)"/>
    </g>
  </g>
</svg>
