<svg xmlns="http://www.w3.org/2000/svg" xmlns:xlink="http://www.w3.org/1999/xlink" width="600" height="97.62" viewBox="0 0 600 97.62">
  <defs>
    <clipPath id="clip-path">
      <rect id="사각형_364" data-name="사각형 364" width="600" height="97.62" stroke="#fff" stroke-width="1"/>
    </clipPath>
  </defs>
  <g id="그룹_2634" data-name="그룹 2634" transform="translate(0 0.001)">
    <g id="그룹_2633" data-name="그룹 2633" transform="translate(0 0)" clip-path="url(#clip-path)">
      <path id="패스_14095" data-name="패스 14095" d="M126.268,48.711c0-27.054,21.829-48.67,49.156-48.672a49.056,49.056,0,0,1,49.191,48.793c.075,26.668-22.388,48.858-49.332,48.727a48.813,48.813,0,0,1-49.016-48.848m49.307,29.934c15.942-.113,28.423-15.89,26.452-33.432-1.437-12.784-10.575-23.7-21.651-25.863-11.212-2.191-22.037,3.146-28,13.806-11.109,19.853,2.043,45.639,23.2,45.488" transform="translate(190.295 0.06)" stroke="#fff" stroke-width="1"/>
      <path id="패스_14096" data-name="패스 14096" d="M169.407,96.357c-.2-2.705-.456-4.555-.459-6.408-.03-16.642-.135-33.284.015-49.923.183-20.142,10.271-33.126,29.488-37.96a64.94,64.94,0,0,1,34.329.5c17.136,4.936,27.066,17.118,27.488,34.944.424,17.9.043,35.809.16,53.712.025,3.665-1.028,5.109-5,5.232-17.336.531-17.334.662-17.334-16.863,0-13.481.058-26.964-.018-40.444-.07-12.322-5.809-18.723-18.016-19.966a52.069,52.069,0,0,0-10.7-.005c-12.194,1.309-18.031,7.737-18.109,19.979-.108,17.063-.178,34.126.068,51.187.068,4.683-1.284,6.451-6.065,6.1-5.012-.369-10.071-.083-15.85-.083" transform="translate(254.521 0.001)" stroke="#fff" stroke-width="1"/>
      <path id="패스_14097" data-name="패스 14097" d="M284.123.807V18.885c-6.569,0-13.019-.073-19.467.023-6.1.088-12.267-.148-18.282.659-9.66,1.3-14.915,8.732-13.558,19.179,10.961,0,22.062-.15,33.159.038,14.757.246,12.538-2.833,12.733,13.122.018,1.439-.248,2.881-.454,5.077H233.162C230.991,67.031,236.594,75.2,246.73,76.1c9.828.872,19.768.454,29.661.587,2.477.035,4.956.005,7.719.005V95.765c-15.559-.652-31.053.175-45.982-2.344-14.844-2.51-24.69-13.453-27.132-28.3a109.625,109.625,0,0,1-.176-33.813C213.627,12.948,229.331.965,247.981.824c11.954-.09,23.912-.018,36.142-.018" transform="translate(315.877 1.175)" stroke="#fff" stroke-width="1"/>
      <path id="패스_14098" data-name="패스 14098" d="M106.909,94.774H87.269c-.173-2.184-.481-4.385-.5-6.591-.06-9.9.158-19.8-.1-29.7-.273-10.409-4.934-14.9-15.258-15.15-5.423-.133-10.853-.025-17.086-.025V94.666H34.54V.862c5.526,0,11.111-.243,16.639.2,1.121.09,2.82,2.745,2.9,4.287.326,6.466.135,12.957.135,19.761,9.467.509,18.274.552,26.976,1.542,17.911,2.036,25.7,11.014,25.715,28.769.01,12.994,0,25.988,0,39.351" transform="translate(52.054 1.2)" stroke="#fff" stroke-width="1"/>
      <path id="패스_14099" data-name="패스 14099" d="M85.675,53.619c4.1,8.775,11.051,10.74,18.572,10.956,11.337.323,22.689,1.085,34.515,1.085V80.743c-15.717-.855-31.4-.308-46.539-2.911C75.471,74.954,66.714,61.93,66.806,44.95c.093-16.8,9.126-29.511,25.976-32.472,11.826-2.078,24.331-1.92,36.348-.8,11.685,1.091,17.168,10.377,16,23.113-1.048,11.425-8.424,18.6-19.843,18.785-12.839.2-25.685.045-39.609.045m-.5-15.331c13.13,0,25.492-.08,37.854.048,3.919.04,4.593-2.093,4.28-5.212-.288-2.856,1.376-7.183-3.613-7.17a241.276,241.276,0,0,0-26.938,1.181c-5.576.639-9.963,4.046-11.583,11.154" transform="translate(100.681 16.377)" stroke="#fff" stroke-width="1"/>
      <path id="패스_14100" data-name="패스 14100" d="M74.847,1.04V17.757c-1.966.173-3.763.456-5.563.466-9.266.048-18.537-.078-27.8.05-11.039.15-19.836,8.143-20.576,19.109a164.5,164.5,0,0,0-.015,20.829C21.541,69.23,30.135,77.275,41.242,77.5c9.685.191,19.38.153,29.067.005,3.507-.055,4.693,1.171,4.839,4.728.534,12.969.662,13.047-12.357,12.939-10.1-.085-20.312.5-30.255-.83C13.782,91.823.64,76.2.141,57.253c-.173-6.523-.216-13.062.038-19.58.745-19.109,15.5-35.209,34.5-36.465C47.828.338,61.083,1.04,74.847,1.04" transform="translate(0 1.165)" stroke="#fff" stroke-width="1"/>
      <path id="패스_14101" data-name="패스 14101" d="M133.481,47.54V95.505H113.053V48.616c-4.45-.933-10.715-.8-11.392-2.68-1.592-4.412-.509-9.788-.509-15.318l11.187-.524c.2-1.579.409-2.973.552-4.372,1.251-12.335,8.379-21.037,20.525-23.1,9.234-1.567,18.723-1.632,28.613-2.4V17.834c-5.909,0-11.736-.253-17.532.06-7.957.431-10.773,3.618-10.866,12.3h23.12c0,5.165.369,9.569-.216,13.847-.183,1.344-2.856,3.222-4.5,3.337-5.849.406-11.743.158-18.56.158" transform="translate(151.902 0.331)" stroke="#fff" stroke-width="1"/>
    </g>
  </g>
</svg>
