<svg xmlns="http://www.w3.org/2000/svg" width="31.595" height="31.594" viewBox="0 0 31.595 31.594">
  <g id="Group_472" data-name="Group 472" transform="translate(0.5 0.5)">
    <path id="Path_354" data-name="Path 354" d="M15.3,29.245A13.994,13.994,0,1,0,5.209,24.9l-.944.976A15.293,15.293,0,1,1,30.595,15.3a15.516,15.516,0,0,1-2.234,7.954A15.28,15.28,0,0,1,7.441,28.416l.971-1A13.843,13.843,0,0,0,15.3,29.245" transform="translate(0)" stroke="#000" stroke-width="1"/>
    <path id="Path_359" data-name="Path 359" d="M25.1,14.125a18.632,18.632,0,0,1-5.477,6.064s4.3,3.21,5.477,5.477" transform="translate(-7.735 -4.598)" fill="none" stroke="#000" stroke-miterlimit="10" stroke-width="2"/>
  </g>
</svg>
